<svg width="72" height="72" viewBox="0 0 72 72" fill="none" xmlns="http://www.w3.org/2000/svg">
<path fill-rule="evenodd" clip-rule="evenodd" d="M36.0019 0C55.8801 0 72.0001 16.116 72.0001 35.9986C72.0001 55.8785 55.8801 72 36.0019 72C16.1181 72 0 55.8785 0 35.9986C0 16.116 16.1181 0 36.0019 0ZM57.8536 46.4135C57.8536 38.0805 49.0208 34.0522 45.258 32.86C50.6406 30.7837 54.3608 27.2787 54.3478 21.7706C54.3292 13.9191 44.7951 12.5831 40.9117 12.5831H39.1907C39.3447 8.69488 41.5026 8.56871 44.2867 8.56871V6.59909H27.0219V8.41285C29.8774 8.41285 32.0093 8.69488 32.1624 12.5831C30.5189 12.5821 28.769 12.5807 27.0299 12.5793C20.8281 12.5742 14.7647 12.5693 14.1619 12.5831V14.5676C18.2865 14.5676 20.4648 14.9127 20.4648 20.4328V51.7973C20.4648 56.7552 19.0268 57.3963 14.1712 57.3963L14.1433 59.5273H40.9117C50.1072 59.5273 57.8536 54.6325 57.8536 46.4135ZM40.5316 34.2428C45.9773 36.8729 50.4545 41.213 50.4545 47.7332C50.4545 53.296 44.8121 56.7194 39.1948 56.724V36.6336C37.6325 36.9973 34.8011 37.3721 32.1664 37.4639V56.724C29.8684 56.6832 27.5111 55.8612 27.5111 51.9415V14.9131L39.1771 14.9084C43.607 14.9084 47.5516 17.392 47.5516 22.5948C47.5516 26.6538 45.0858 30.1495 39.1948 31.8881V16.634H32.1664V32.9421C31.9639 32.9541 31.7654 32.967 31.5648 32.9801C31.0523 33.0135 30.5268 33.0478 29.8907 33.0692L28.911 35.5008C32.8102 35.4665 36.9803 35.0156 40.5316 34.2428ZM27.0235 65.4162C29.879 65.4162 32.0109 65.136 32.164 61.2524H39.1923C39.3463 65.136 41.5042 65.2631 44.2883 65.2631V67.2318H27.0235V65.4162Z" fill="#084A7A"/>
</svg>
