<svg width="80" height="80" viewBox="0 0 80 80" fill="none" xmlns="http://www.w3.org/2000/svg">
<rect x="0.000976562" width="79.9983" height="79.9983" rx="39.9991" fill="#FFCC3B"/>
<path fill-rule="evenodd" clip-rule="evenodd" d="M58.667 21.334C61.2443 21.334 63.3337 23.4233 63.3337 26.0007V54.0006C63.3337 56.578 61.2443 58.6673 58.667 58.6673H21.3337C18.7563 58.6673 16.667 56.578 16.667 54.0006V26.0007C16.667 23.4233 18.7563 21.334 21.3337 21.334H58.667ZM37.667 47.0006H26.0003C24.7117 47.0006 23.667 48.0453 23.667 49.334C23.667 50.5306 24.5678 51.5168 25.7282 51.6516L26.0003 51.6673H37.667C38.9557 51.6673 40.0003 50.6226 40.0003 49.334C40.0003 48.0453 38.9557 47.0006 37.667 47.0006ZM61.0003 30.6673H19.0003V40.0007H61.0003V30.6673Z" fill="#0F479C"/>
</svg>
