<svg width="80" height="80" viewBox="0 0 80 80" fill="none" xmlns="http://www.w3.org/2000/svg">
<rect x="0.000976562" width="79.9983" height="79.9983" rx="39.9991" fill="#FFCC3B"/>
<path fill-rule="evenodd" clip-rule="evenodd" d="M39.9992 16.666C47.7312 16.666 53.9992 22.934 53.9992 30.666V35.3327C56.5765 35.3327 58.6659 37.422 58.6659 39.9993V58.666C58.6659 61.2433 56.5765 63.3327 53.9992 63.3327H25.9992C23.4219 63.3327 21.3325 61.2433 21.3325 58.666V39.9993C21.3325 37.422 23.4219 35.3327 25.9992 35.3327V30.666C25.9992 22.934 32.2672 16.666 39.9992 16.666ZM39.9992 23.666C36.1332 23.666 32.9992 26.8 32.9992 30.666V35.3327H46.9992V30.666C46.9992 26.8 43.8652 23.666 39.9992 23.666ZM39.9992 42.3327C37.4219 42.3327 35.3325 44.422 35.3325 46.9993C35.3325 48.7568 36.304 50.2873 37.7392 51.0833C37.6913 51.2695 37.6659 51.4648 37.6659 51.666V53.9993C37.6659 55.288 38.7105 56.3327 39.9992 56.3327C41.2878 56.3327 42.3325 55.288 42.3325 53.9993V51.666C42.3325 51.4648 42.307 51.2695 42.2592 51.0833C43.6944 50.2873 44.6659 48.7568 44.6659 46.9993C44.6659 44.422 42.5765 42.3327 39.9992 42.3327Z" fill="#0F479C"/>
</svg>
