<svg width="80" height="80" viewBox="0 0 80 80" fill="none" xmlns="http://www.w3.org/2000/svg">
<rect x="0.000976562" width="79.9983" height="79.9983" rx="39.9991" fill="#FFCC3B"/>
<path fill-rule="evenodd" clip-rule="evenodd" d="M39.6307 63.2731C39.88 63.3562 40.1375 63.3505 40.3689 63.2731L40.3689 63.2731C52.4938 59.2315 58.6667 51.4125 58.6667 39.9996V25.9996C58.6667 25.5464 58.4041 25.1341 57.9934 24.9424L40.4934 16.7758C40.1679 16.6239 39.8082 16.6351 39.5063 16.7758L22.0063 24.9424C21.5956 25.1341 21.333 25.5464 21.333 25.9996V39.9996C21.333 51.4125 27.5059 59.2315 39.6307 63.2731ZM29.0149 40.6899C29.9253 39.7778 31.4027 39.7765 32.3147 40.6868L35.4776 43.8439L47.8391 33.5404C48.8289 32.7153 50.3003 32.8489 51.1254 33.8388C51.9505 34.8287 51.8169 36.3 50.827 37.1251L36.8301 48.7918C35.9036 49.564 34.5413 49.5029 33.6877 48.6509L29.018 43.9897C28.1059 43.0794 28.1045 41.602 29.0149 40.6899Z" fill="#0F479C"/>
</svg>
