<svg width="145" height="66" viewBox="0 0 145 66" fill="none" xmlns="http://www.w3.org/2000/svg">
<path fill-rule="evenodd" clip-rule="evenodd" d="M73.7452 0.714355C87.201 0.714355 98.1128 11.4583 98.1128 24.7134C98.1128 37.9667 87.201 48.7144 73.7452 48.7144C60.2856 48.7144 49.375 37.9667 49.375 24.7134C49.375 11.4583 60.2856 0.714355 73.7452 0.714355ZM88.538 31.6568C88.538 26.1014 82.559 23.4159 80.0119 22.6211C83.6554 21.2369 86.1736 18.9002 86.1649 15.2281C86.1523 9.99377 79.6985 9.10312 77.0698 9.10312H75.9049C76.0091 6.51099 77.4698 6.42687 79.3544 6.42687V5.11379H67.6676V6.32296C69.6005 6.32296 71.0436 6.51099 71.1473 9.10312C70.0346 9.10245 68.8499 9.1015 67.6725 9.10056C63.4746 9.09722 59.3705 9.09395 58.9625 9.10312V10.4261C61.7545 10.4261 63.229 10.6562 63.229 14.3363V35.2459C63.229 38.5512 62.2556 38.9786 58.9688 38.9786L58.9499 40.3993H77.0698C83.2943 40.3993 88.538 37.1361 88.538 31.6568ZM76.8097 23.5426C80.496 25.296 83.5266 28.1894 83.5266 32.5362C83.5266 36.2447 79.7072 38.527 75.9048 38.5301V25.1364C74.8473 25.3789 72.9307 25.6288 71.1472 25.69V38.5301C69.5917 38.5029 67.996 37.9549 67.996 35.3417V10.6561L75.8929 10.653C78.8915 10.653 81.5617 12.3087 81.5617 15.7773C81.5617 18.4832 79.8925 20.8137 75.9048 21.9728V11.8034H71.1472V22.6754C71.0102 22.6834 70.8758 22.6921 70.7401 22.7008L70.74 22.7008C70.3931 22.7231 70.0374 22.7459 69.6068 22.7602L68.9436 24.3813C71.583 24.3584 74.4058 24.0578 76.8097 23.5426ZM67.6675 44.3249C69.6004 44.3249 71.0435 44.1381 71.1472 41.549H75.9048C76.009 44.1381 77.4697 44.2228 79.3543 44.2228V45.5353H67.6675V44.3249Z" fill="white"/>
<path fill-rule="evenodd" clip-rule="evenodd" d="M31.122 56.8759V65.183H30.8219C27.7941 61.6936 25.9419 59.5686 24.7682 58.232C23.9874 57.3315 23.3884 56.6204 22.5397 55.5462C22.5117 56.105 22.5118 56.6773 22.5121 59.2574L22.5122 60.2715C22.5122 64.3914 22.5122 64.6909 23.9298 64.6909V65.0628L23.8039 65.0602H23.8039H23.8038H23.8038H23.8037H23.8036C23.0549 65.0448 22.3683 65.0307 21.718 65.0307C21.1806 65.0307 20.9061 65.0386 20.5438 65.049L20.5437 65.049C20.3947 65.0533 20.2309 65.058 20.0278 65.0628L20.0142 65.0622C19.6801 65.046 19.3627 65.0307 18.5071 65.0307C17.6278 65.0307 16.7516 65.0464 16.2396 65.0628V64.6827C17.6364 64.6827 17.5464 64.4478 16.4263 61.5236L16.3644 61.362H11.857C10.6154 64.431 10.5303 64.6827 11.976 64.6827V65.0628C11.3847 65.0464 10.6436 65.0307 9.82821 65.0307C8.9815 65.0307 8.36583 65.0464 7.97863 65.0628V64.6827C8.9559 64.6827 9.09862 64.4348 10.7901 60.291L14.1008 52.1431H14.4189L17.6092 60.291C19.1407 64.1755 19.3468 64.6368 20.1551 64.6789C21.1682 64.7304 21.1682 63.9499 21.1682 60.3128V60.2715V52.2677H21.4697C24.516 55.8319 26.3957 58.013 27.5733 59.3697C28.356 60.2601 28.866 60.8743 29.7505 61.9976C29.7799 61.4319 29.7798 60.8352 29.7794 58.078V58.078V58.0779V58.0779V58.0779V58.0774L29.7793 56.8759V56.8759C29.7793 53.0001 29.7793 52.6975 28.3201 52.6975V52.3287C28.9883 52.3451 29.7006 52.3621 30.3655 52.3621C31.0529 52.3621 31.6807 52.3463 32.3087 52.3305L32.379 52.3287V52.6975C31.122 52.7094 31.122 53.0001 31.122 56.8759ZM135.621 61.362H140.129L140.188 61.5161C141.31 64.4474 141.4 64.6827 140.004 64.6827V65.0628C140.514 65.0465 141.39 65.0307 142.27 65.0307C143.138 65.0307 143.743 65.0465 144.081 65.0628V64.6827C143.13 64.6827 143.002 64.4272 141.374 60.291L138.184 52.1431H137.864L134.552 60.291C132.95 64.2215 132.739 64.679 131.885 64.679C130.65 64.679 130.621 64.2133 130.621 60.291V56.8369C130.621 52.9611 130.625 52.7094 131.962 52.7094V52.3287C131.475 52.3451 130.627 52.3621 129.809 52.3621C129.048 52.3621 128.329 52.3451 127.683 52.3287V52.7094C129.075 52.7094 129.075 52.9655 129.075 56.8413V60.3086C129.075 64.4272 129.075 64.6827 127.626 64.6827V65.0628L127.627 65.0628C128.316 65.0464 128.978 65.0307 129.853 65.0307C130.682 65.0307 131.318 65.0465 131.922 65.0628C132.308 65.0465 132.747 65.0307 133.593 65.0307C134.41 65.0307 135.149 65.0465 135.741 65.0628V64.6827C134.294 64.6827 134.379 64.431 135.621 61.362ZM67.5791 65.183V56.8759C67.5791 53.0001 67.5791 52.7094 68.8367 52.6974V52.3287L68.754 52.3307C68.128 52.3464 67.5062 52.362 66.8233 52.362C66.159 52.362 65.4454 52.345 64.7766 52.3287V52.6974C66.2358 52.6974 66.2358 53.0001 66.2358 56.8759L66.2359 58.0965C66.2363 60.8378 66.2364 61.4331 66.2076 61.9976C65.3212 60.8743 64.8131 60.2601 64.031 59.3697C62.8502 58.013 60.9718 55.8319 57.9242 52.2676H57.6253V60.2714C57.6253 64.3913 57.6253 64.6947 56.1924 64.6947V65.0628L56.4849 65.0558L56.485 65.0558C57.0478 65.0422 57.5255 65.0307 58.1757 65.0307C58.8274 65.0307 59.5196 65.0449 60.2716 65.0604L60.3869 65.0628V64.6909C58.9687 64.6909 58.9687 64.3913 58.9687 60.2714L58.9686 59.2739V59.2729C58.9683 56.6795 58.9682 56.1061 58.9968 55.5462C59.8467 56.6204 60.4438 57.3315 61.2246 58.2319C62.399 59.5685 64.2524 61.6936 67.2802 65.183H67.5791ZM81.6199 58.3466C81.6199 60.6025 80.7949 62.4488 79.1937 63.6935C77.9783 64.6331 76.4398 65.0685 74.194 65.0685C73.9929 65.0685 73.7184 65.0613 73.4096 65.0532L73.4095 65.0532C73.0128 65.0427 72.5597 65.0308 72.1333 65.0308C71.5617 65.0308 71.0571 65.0401 70.5287 65.0498C70.3696 65.0527 70.2083 65.0557 70.0424 65.0585V64.6828C71.5016 64.6828 71.5016 64.3914 71.5016 60.2967V56.8413C71.5016 52.9656 71.5016 52.7365 70.1071 52.7365V52.3816C70.3824 52.3816 70.7387 52.377 71.1057 52.3723C71.4954 52.3673 71.8971 52.3621 72.2267 52.3621C72.5514 52.3621 72.8401 52.3534 73.1569 52.3438C73.5419 52.3322 73.9686 52.3193 74.5518 52.3193C76.6247 52.3193 77.8279 52.6258 78.9601 53.2658C80.6176 54.1996 81.6199 56.0736 81.6199 58.3466ZM79.9572 58.4554C79.9572 56.7412 79.2282 55.2574 78.0596 54.467C77.2263 53.9044 75.954 53.5979 74.5883 53.5979C73.94 53.5979 73.6251 53.62 73.0478 53.6628V63.2605C73.0478 63.5915 73.1253 63.6916 73.3934 63.7319C73.7102 63.7879 74.1025 63.8036 74.5032 63.8036C76.011 63.8036 77.2468 63.438 78.1933 62.6489C79.344 61.7012 79.9572 60.223 79.9572 58.4554ZM136.06 60.1803H139.681L139.665 60.1211C139.439 59.5068 139.244 58.9756 139.074 58.5153L139.045 58.4363L139.042 58.4285L139.027 58.3859L138.994 58.2975L138.979 58.2578L138.978 58.2543L138.978 58.2529L138.977 58.2507C138.081 55.8188 137.984 55.5551 137.93 55.3103C137.852 55.5428 137.753 55.7983 136.884 58.037C136.667 58.5972 136.402 59.2817 136.076 60.1211L136.06 60.1803ZM126.358 61.7515C126.358 63.6878 124.931 65.1987 122.355 65.1987C121.305 65.1987 120.204 64.9225 119.621 64.6469C119.694 63.9075 119.737 62.8427 119.753 61.7471H120.129C120.153 62.5986 120.385 63.1479 120.777 63.4802C121.155 63.8036 121.708 63.9358 122.358 63.9358C123.781 63.9358 124.748 63.1605 124.748 61.9655C124.748 61.2097 124.462 60.6107 123.736 60.0449C123.258 59.6743 122.728 59.3181 122.025 58.8663C120.645 57.9702 119.873 56.9552 119.873 55.5374C119.873 53.6779 121.395 52.2349 123.639 52.2349C124.423 52.2349 125.276 52.3778 125.882 52.5785C125.817 53.518 125.793 54.5041 125.781 55.3656H125.406C125.425 54.5922 125.272 54.1813 124.904 53.8837C124.618 53.6426 124.129 53.4948 123.574 53.4948C122.371 53.4948 121.454 54.2115 121.454 55.3782C121.454 56.027 121.765 56.6091 122.326 57.0905C122.757 57.4441 123.281 57.8267 124.078 58.3383C125.36 59.169 126.358 60.1286 126.358 61.7515ZM111.344 56.8413V60.2966C111.344 64.4272 111.344 64.6827 110.043 64.6827V65.0628C110.82 65.0464 111.97 65.0307 113.493 65.0307C115.016 65.0307 116.658 65.0464 117.82 65.0628C117.82 64.1799 117.877 63.2127 117.921 62.4573L117.928 62.3349H117.566C117.424 63.6475 116.965 63.7596 116.042 63.7753C115.209 63.7845 114.49 63.7805 113.753 63.7764L113.557 63.7753C112.925 63.7715 112.892 63.7356 112.892 63.1001V59.1432H114.848C116.302 59.1432 116.69 59.1941 116.79 60.1078H117.136C117.101 59.5849 117.07 59.0488 117.07 58.4925C117.07 58.018 117.101 57.5247 117.136 57.0967H116.786C116.679 57.901 116.27 57.9293 114.802 57.9293H112.892V53.5627H115.493C116.853 53.5627 117.131 53.8106 117.186 55.1384H117.55C117.559 54.1725 117.607 53.2172 117.676 52.3287C116.554 52.3451 114.921 52.362 113.378 52.362C112.139 52.362 111.169 52.3459 110.441 52.3339L110.124 52.3287V52.7094C111.344 52.7094 111.344 52.9655 111.344 56.8413ZM94.3499 58.6007C94.3499 55.6871 92.1675 53.5218 89.3791 53.5218C86.5619 53.5218 84.3961 55.6871 84.3961 58.7052C84.3961 61.8176 86.5907 63.9156 89.3465 63.9156C92.1304 63.9156 94.3499 61.8509 94.3499 58.6007ZM89.2569 65.234C93.228 65.234 96.0549 62.3393 96.0549 58.5064C96.0549 54.8087 93.2204 52.2041 89.5174 52.2041C85.6461 52.2041 82.6727 54.8729 82.6727 58.7744C82.6727 62.4966 85.6032 65.234 89.2569 65.234ZM53.4673 56.8369V60.291C53.4673 64.4234 53.4673 64.6827 54.947 64.6827V65.0628C54.3435 65.0464 53.5294 65.0307 52.6974 65.0307C51.8213 65.0307 51.1595 65.0464 50.4728 65.0628V64.6827C51.9186 64.6827 51.9186 64.4272 51.9186 60.3086V56.8413C51.9186 52.9655 51.9186 52.7094 50.5266 52.7094V52.3287C51.1742 52.3451 51.8923 52.362 52.6552 52.362C53.4737 52.362 54.3211 52.3451 54.8094 52.3287V52.7094C53.4712 52.7094 53.4673 52.9611 53.4673 56.8369ZM35.1545 56.8413V60.2966C35.1545 64.4272 35.1545 64.6827 33.7075 64.6827V65.0628C34.3494 65.0464 35.1628 65.0307 36.0012 65.0307C36.7249 65.0307 37.2712 65.0429 37.9022 65.057L37.9023 65.057L38.1657 65.0628V64.6827C36.7046 64.6827 36.7001 64.431 36.7001 60.4942L36.734 58.8889L39.7221 62.3487L39.9002 62.5576C41.4314 64.3525 41.7131 64.6827 40.3673 64.6827V65.0628L40.6985 65.0563C41.3936 65.0425 41.9884 65.0307 42.6987 65.0307C43.5391 65.0307 44.2315 65.0464 44.7186 65.0628V64.6827C43.8386 64.6827 43.4872 64.4272 41.5724 62.2606L38.1298 58.3937L40.9996 55.1523C41.2021 54.9285 41.3852 54.7248 41.5518 54.5395C42.9855 52.9448 43.197 52.7094 44.0651 52.7094V52.3287C43.5947 52.3451 42.8997 52.362 42.1983 52.362C41.6722 52.362 41.2142 52.3521 40.6609 52.3402C40.4899 52.3365 40.3098 52.3326 40.1157 52.3287V52.7094C41.2895 52.7094 41.1877 53.0165 39.3625 55.1057L36.7001 58.142V56.6695C36.7001 52.9693 36.7295 52.7094 38.03 52.7094V52.3287L38.0264 52.3288C37.3888 52.3451 36.728 52.362 35.9161 52.362C35.102 52.362 34.3635 52.3451 33.7625 52.3287V52.7094C35.1545 52.7094 35.1545 52.9655 35.1545 56.8413ZM15.9177 60.1803H12.2959L12.3132 60.1211C12.7051 59.1087 13.01 58.3216 13.2484 57.706L13.2485 57.7059C13.9977 55.772 14.0911 55.5308 14.1654 55.3103C14.2203 55.5556 14.3176 55.8197 15.2178 58.2635L15.2179 58.2639C15.4077 58.7793 15.6333 59.3916 15.9017 60.1211L15.9177 60.1803ZM6.84264 61.4697C6.84264 60.1916 5.90569 59.5258 5.12554 59.3087C4.71786 59.1942 4.19051 59.1218 3.61836 59.1218C3.43532 59.1218 3.12941 59.1269 2.96301 59.1432V63.1165C2.96301 63.6042 2.98669 63.664 3.18764 63.7401C3.40396 63.8156 3.76684 63.8276 4.03115 63.8276C4.56363 63.8276 5.17546 63.6759 5.49865 63.5236C6.27368 63.1983 6.84264 62.5451 6.84264 61.4697ZM3.87436 53.5218C5.30026 53.5218 6.28904 54.2423 6.28904 55.6827C6.28904 56.9677 5.40009 57.5831 4.61931 57.8091C4.23211 57.9267 3.75596 57.9519 3.46092 57.9519C3.29662 57.9519 3.11903 57.9432 2.99099 57.9369L2.99097 57.9369L2.99095 57.9369L2.96301 57.9355V53.5709L3.02792 53.5648C3.20911 53.5475 3.47979 53.5218 3.87436 53.5218ZM8.43362 61.5219C8.43362 62.7206 7.89347 63.6639 7.105 64.2253C6.27173 64.8124 5.24838 65.0786 3.7828 65.0786C3.46855 65.0786 3.14013 65.0663 2.81652 65.0541L2.81642 65.0541C2.5021 65.0423 2.19231 65.0307 1.90442 65.0307C1.62839 65.0307 1.24028 65.0378 0.787441 65.0461L0.787161 65.0461C0.566035 65.0502 0.32948 65.0545 0.0830078 65.0584V64.6827C1.47947 64.6827 1.47947 64.4273 1.47947 60.2967V56.8413C1.47947 52.9655 1.47947 52.7094 0.232766 52.7094V52.3684C0.539834 52.3706 0.948932 52.368 1.33766 52.3654L1.33767 52.3654H1.33767C1.60276 52.3637 1.85838 52.3621 2.0657 52.3621C2.25621 52.3621 2.48369 52.3549 2.73832 52.3468C3.06195 52.3366 3.42943 52.3249 3.82056 52.3249C4.51559 52.3249 5.19462 52.4049 5.66885 52.5414C6.8234 52.8586 7.87171 53.8189 7.87171 55.5192C7.87171 57.0735 6.68004 58.2295 5.49862 58.4227C7.13956 58.6354 8.43362 59.8593 8.43362 61.5219ZM107.426 65.183V56.8759C107.426 53.0001 107.426 52.7094 108.679 52.6974V52.3287L108.606 52.3305C107.978 52.3463 107.352 52.362 106.669 52.362C106 52.362 105.292 52.345 104.623 52.3287V52.6974C106.082 52.6974 106.082 53.0001 106.082 56.8759C106.082 57.2486 106.082 57.5914 106.082 57.9071C106.083 60.8108 106.083 61.4203 106.052 61.9976C105.17 60.8743 104.658 60.2601 103.878 59.3697C102.696 58.013 100.819 55.8319 97.7701 52.2676H97.4719V60.2714C97.4719 64.3913 97.4719 64.6947 96.0389 64.6947V65.0628C96.138 65.0605 96.2336 65.0581 96.3269 65.0559C96.8897 65.0423 97.3681 65.0307 98.0197 65.0307C98.6693 65.0307 99.3531 65.0447 100.1 65.0601L100.232 65.0628V64.6909C98.8127 64.6909 98.8127 64.3913 98.8127 60.2714C98.8127 59.9091 98.8126 59.5776 98.8126 59.2739C98.8122 56.6797 98.8122 56.1061 98.8408 55.5462C99.6888 56.6204 100.29 57.3315 101.071 58.2319C102.243 59.5685 104.095 61.6936 107.125 65.183H107.426Z" fill="white"/>
</svg>
