<svg version="1.2" xmlns="http://www.w3.org/2000/svg" viewBox="0 0 550 470" width="550" height="470"><style>.a{fill:#fff}</style><path fill-rule="evenodd" class="a" d="m206.3 74.2h-32.5c-3.7 0-6.8-3-6.8-6.7v-32.7h31.5c4.3 0 7.8 3.5 7.8 7.8z"/><path fill-rule="evenodd" class="a" d="m345.3 189.4h32.5c3.7 0 6.7 3 6.7 6.7v32.7h-31.5c-4.2 0-7.7-3.5-7.7-7.8z"/><path fill-rule="evenodd" class="a" d="m182.7 195.6c12.9 0 23.4 10.5 23.4 23.4v30.9c0 13 10.7 23.7 23.8 23.7h54.4v-56c0-12.1-9.8-21.9-21.9-21.9h-33c-12.2 0-22.2-9.7-22.8-21.8q0-0.5 0-1l0.2-28.5c0.1-8.7 5.8-15.3 16.3-15.3h23.4c8 0 14.5-6.6 14.5-14.6v-40.3h-54.7v15.9 23.3c0 7.9-5.8 14.5-13.4 15.7h-37.2c-8.7 0-15.8 7.1-15.8 15.8v50.7z"/><path fill-rule="evenodd" class="a" d="m395.5 56.5h-35.3c-8.4 0-15.2-6.8-15.2-15.2v-24.5c0-7.1-5.9-13-13-13h-41.7v38.1c0 8.5 6.9 15.4 15.3 15.4h22.6c9.4 0 17.1 7.7 17.1 17v33.6c0 8.4-6.9 15.3-15.4 15.3h-36.6c-8.1 0-14.7 6.7-14.7 14.8v36.3c0 8.3 6.8 15.1 15.1 15.1h51.6v-50c0-8.9 7.2-16.2 16.1-16.2h33.6c9.1 0 16.5-7.4 16.5-16.5v-34.1c0-8.8-7.2-16.1-16-16.1z"/><path fill-rule="evenodd" class="a" d="m428.5 345.8c0 10.8 3.2 21.1 8.4 26.8 9.4 10.1 31.7 12.1 44.5 4.2l4.9-3.1 0.6 6.7h10.7v-37.2h-35.9v11.2h20.6c-0.4 18.5-32.3 20.2-36.8 1.7-3-12.5-1.2-32.9 16.9-32.9 5 0 10.4-0.1 14.4 2.9 3.9 2.8 4.8 5.5 4.8 9.8h16c0-7.9-3.5-14.6-7.9-18.1-10.4-8.2-31.7-10-44-3.9-11.8 5.9-17.2 17-17.2 31.9z"/><path fill-rule="evenodd" class="a" d="m86.4 344.5c0 23.5 10.6 37.2 35.2 37.2 10.9 0 20-2.9 25.5-8.5 3.3-3.4 4.8-4.9 6.9-9.7 3-6.8 2.8-13.4 2.8-21 0-18.7-13.6-31.9-29.2-31.9-12 0-23.9-0.9-33.4 9.8-4.8 5.4-7.8 14-7.8 24.1zm35.9 24.6c-18.5 0-19.9-12.8-19.9-25.9 0-11.2 6.2-20 17.2-20 6.7 0 13.4-0.1 17.9 6.8 5.4 8.4 5.5 23.4-0.3 32-2.8 4.2-8.4 7.1-14.9 7.1z"/><path fill-rule="evenodd" class="a" d="m291.7 360.4h15.2v-36.5c13.5 0 30.6-0.7 30.6 17.3 0 10.3 1.1 26.5-17.3 26.5h-28.5v12.7h29.2c10 0 17.5-2.9 23.1-7.5 9.6-8 9.4-19.8 9.4-31.7 0-7.7-3.2-16-8.7-21.2l-1.7-1.6c-11.3-9.5-34-7.1-51.3-7.1z"/><path fill-rule="evenodd" class="a" d="m4.7 380.4h15.3l0.1-19.1 47.1-50h-18.2c-0.4 0.2-26.3 28.7-29 30.5v-30.5h-15.3z"/><path fill-rule="evenodd" class="a" d="m383.3 380.4h15.3v-69.1h-15.3z"/><path fill-rule="evenodd" class="a" d="m529.4 380.4h15.3v-69.1h-15.3z"/><path fill-rule="evenodd" class="a" d="m34.8 356.6c5.1 7.7 9.9 15.9 15.1 23.8h17.9c-1.2-4.5-17.9-27-21.9-34.6z"/><path class="a" d="m186.5 380.4v-69.1h22.9l13.5 47.1 13.3-47.1h22.9v69.1h-15.3v-53.5l-13.7 53.5h-14.7l-14.7-53.4-0.1 53.4z"/><path class="a" d="m4.6 403.5h3.7v12.1l11.6-12.1h4.5l-8.7 9.2 9 13.6h-4.4l-7.1-11-4.9 4.4v6.6h-3.7zm29.7 23.2q-4.2 0-6.2-2.2-2.1-2.2-2.1-6.9 0-4.7 2.1-6.9 2-2.2 6.2-2.2 3.9 0 5.7 2 1.9 2.1 1.9 6.6v1.4h-12.4q0.1 2.8 1.3 4.1 1.1 1.4 3.6 1.4 1.9 0 3-0.9 1.2-0.9 1.2-2.8h3.3q0 3.1-2.1 4.8-2.1 1.6-5.5 1.6zm4.1-10.8q0-4.7-4.1-4.7-2.2 0-3.4 1.1-1.1 1.1-1.3 3.6zm6.9-7.1h2.8l0.3 2.4h0.2q0.9-1.4 2.2-2.1 1.3-0.6 3-0.6 3.4 0 4.5 2.7h0.2q0.9-1.3 2.3-2 1.4-0.7 3.1-0.7 2.4 0 3.8 1.3 1.4 1.3 1.4 4.2v12.3h-3.4v-11.6q0-1.8-0.8-2.6-0.8-0.7-2.2-0.7-1.6 0-2.7 1.3-1.1 1.3-1.1 3.4v10.2h-3.4v-11.6q0-1.8-0.7-2.6-0.8-0.7-2.2-0.7-1.6 0-2.7 1.3-1.2 1.3-1.2 3.4v10.2h-3.4zm35.4 17.9q-4.2 0-6.2-2.2-2.1-2.3-2.1-6.9 0-4.7 2.1-6.9 2-2.3 6.2-2.3 3.9 0 5.7 2.1 1.9 2.1 1.9 6.6v1.3h-12.4q0.2 2.8 1.3 4.2 1.1 1.3 3.6 1.3 1.9 0 3-0.9 1.2-0.9 1.2-2.7h3.3q0 3.1-2.1 4.8-2.1 1.6-5.5 1.6zm4.1-10.9q0-4.6-4.1-4.6-2.2 0-3.4 1.1-1.1 1.1-1.3 3.5zm6.9-7h2.8l0.3 2.3h0.2q1-1.3 2.4-2 1.5-0.7 3.4-0.7 5.5 0 5.5 6v11.9h-3.4v-11.4q0-2-0.9-2.8-0.9-0.8-2.5-0.8-1.2 0-2.2 0.6-1 0.6-1.6 1.7-0.6 1-0.6 2.4v10.3h-3.4zm23.1 17.8q-2 0-2.9-1.1-0.9-1.2-0.9-2.9v-11h-2.1v-2.8h2.1l0.7-4.9h2.7v4.9h3v2.8h-3v10.7q0 1.5 1.4 1.5h1.6v2.4q-0.5 0.2-1.2 0.3-0.8 0.1-1.4 0.1zm12.8 0.1q-4.2 0-6.3-2.3-2.1-2.2-2.1-6.9 0-4.7 2.1-6.9 2.1-2.2 6.3-2.2 3.8 0 5.7 2.1 1.9 2.1 1.9 6.6v1.3h-12.4q0.1 2.8 1.2 4.2 1.2 1.3 3.6 1.3 1.9 0 3.1-0.9 1.1-0.9 1.1-2.7h3.4q0 3.1-2.1 4.7-2.1 1.7-5.5 1.7zm4-10.9q0-4.6-4-4.6-2.3 0-3.4 1.1-1.1 1.1-1.4 3.5zm7-7h2.7l0.4 2.7h0.2q1.1-3.1 4-3.1 0.6 0 1 0.1 0.5 0.1 0.6 0.2v3.2h-1.2q-2 0-3.2 1.1-1.1 1.2-1.1 3.5v9.8h-3.4zm11.4-6.6h3.5v3.5h-3.5zm0 6.6h3.5v17.5h-3.5zm12.3 17.8q-2.1 0-3.9-1-1.7-1.1-1.7-3.9 0-3.3 2.9-4.6 2.9-1.3 8.4-1.3v-1.8q0-1.4-0.8-2.1-0.7-0.8-2.7-0.8-2 0-2.8 0.7-0.8 0.7-0.8 1.7v0.4h-3.3q-0.1-0.2-0.1-0.7 0-2.3 2-3.6 1.9-1.2 5.1-1.2 3.4 0 5.1 1.4 1.7 1.4 1.7 3.9v9q0 0.5 0.3 0.8 0.4 0.3 0.9 0.3h1.2v2.3q-0.9 0.4-2.4 0.4-1.2 0-2-0.6-0.8-0.7-1.1-1.8h-0.2q-0.9 1.2-2.4 1.9-1.4 0.6-3.4 0.6zm1-2.8q2 0 3.3-1.1 1.4-1.2 1.4-3.3v-1q-3.8 0-5.8 0.6-2 0.7-2 2.5 0 1.2 0.8 1.8 0.8 0.5 2.3 0.5zm12.8-15h2.8l0.3 2.3h0.3q0.9-1.3 2.4-2 1.5-0.7 3.3-0.7 5.6 0 5.6 6v11.8h-3.5v-11.4q0-1.9-0.8-2.7-0.9-0.8-2.6-0.8-1.2 0-2.2 0.6-1 0.6-1.5 1.6-0.6 1.1-0.6 2.5v10.2h-3.4zm28.3-5.3h3.7v12.1l11.6-12.1h4.5l-8.8 9.2 9 13.6h-4.3l-7.2-11-4.8 4.4v6.6h-3.7zm29.6 23.2q-4.2 0-6.2-2.2-2.1-2.3-2.1-6.9 0-4.7 2.1-6.9 2-2.3 6.2-2.3 4.1 0 6.2 2.3 2.1 2.2 2.1 6.9 0 4.6-2.1 6.9-2.1 2.2-6.2 2.2zm0-2.8q2.5 0 3.7-1.5 1.1-1.5 1.1-4.7v-0.3q0-3.2-1.1-4.7-1.2-1.4-3.7-1.4-2.5 0-3.7 1.4-1.1 1.5-1.1 4.7v0.3q0 3.2 1.1 4.7 1.2 1.5 3.7 1.5zm11.6-15.1h2.8l0.3 2.4h0.3q0.8-1.4 2.1-2.1 1.3-0.7 3-0.7 3.4 0 4.6 2.8h0.1q0.9-1.3 2.3-2.1 1.4-0.7 3.1-0.7 2.5 0 3.9 1.3 1.3 1.4 1.3 4.3v12.3h-3.4v-11.7q0-1.8-0.8-2.5-0.7-0.7-2.1-0.7-1.7 0-2.8 1.2-1.1 1.3-1.1 3.4v10.3h-3.4v-11.7q0-1.8-0.7-2.5-0.8-0.7-2.2-0.7-1.6 0-2.7 1.2-1.2 1.3-1.2 3.4v10.3h-3.4zm33.6 17.9q-5.6 0-5.6-6v-11.9h3.4v11.4q0 2 0.9 2.8 0.9 0.8 2.6 0.7 1.2 0 2.2-0.5 0.9-0.6 1.5-1.7 0.6-1 0.6-2.4v-10.3h3.4v17.5h-2.7l-0.4-2.4h-0.2q-1 1.4-2.4 2.1-1.5 0.7-3.3 0.7zm13.4-17.9h2.8l0.3 2.3h0.2q1-1.3 2.4-2 1.5-0.7 3.4-0.7 5.5 0 5.5 6v11.9h-3.4v-11.5q0-1.9-0.9-2.7-0.9-0.8-2.6-0.8-1.1 0-2.1 0.6-1 0.6-1.6 1.7-0.6 1-0.6 2.4v10.3h-3.4zm18.9-6.6h3.4v3.6h-3.4zm0 6.5h3.4v17.5h-3.4zm7.8-6.6h3.4v14.6l6.9-8h4.1l-5.9 6.8 6.3 10.6h-4l-4.5-8.1-2.9 2.8v5.3h-3.4zm21.5 24.5q-2.1 0-3.9-1.1-1.7-1.1-1.7-3.9 0-3.3 2.9-4.6 2.9-1.3 8.4-1.3v-1.7q0-1.5-0.8-2.2-0.7-0.8-2.8-0.8-1.9 0-2.7 0.7-0.8 0.7-0.8 1.7v0.5h-3.4q0-0.2 0-0.8 0-2.3 1.9-3.5 2-1.3 5.2-1.3 3.4 0 5.1 1.4 1.7 1.4 1.7 3.9v9q0 0.6 0.3 0.9 0.4 0.2 0.8 0.2h1.2v2.3q-0.8 0.5-2.3 0.5-1.2 0-2-0.7-0.8-0.6-1.1-1.8h-0.2q-1 1.2-2.4 1.9-1.5 0.7-3.4 0.7zm1-2.8q2 0 3.3-1.2 1.4-1.2 1.4-3.2v-1.1q-3.8 0-5.8 0.6-2 0.7-2 2.5 0 1.2 0.8 1.8 0.8 0.6 2.3 0.6zm19.1 2.8q-3.6 0-5.5-1.5-1.8-1.5-1.8-3.8 0-0.4 0-0.5 0-0.1 0-0.1h3.3v0.3q0 1.4 1.2 2.1 1.2 0.7 3 0.7 1.6 0 2.6-0.6 1.1-0.6 1.1-1.7 0-0.8-0.6-1.4-0.6-0.5-1.4-0.8-0.9-0.3-2.5-0.8-2-0.5-3.3-1-1.2-0.5-2.1-1.5-0.9-1-0.9-2.6 0-2.4 1.9-3.8 2-1.3 5.3-1.3 2 0 3.5 0.6 1.5 0.6 2.3 1.7 0.8 1.1 0.8 2.5v0.6h-3.3v-0.2q0-1.1-0.9-1.8-0.9-0.7-2.7-0.7-1.8 0-2.6 0.7-0.8 0.6-0.8 1.4 0 1 1 1.5 1 0.5 3.1 1 2.1 0.5 3.5 1 1.3 0.6 2.2 1.6 1 1.1 1 2.9 0 2.8-2 4.1-2 1.4-5.4 1.4zm10.7-24.5h3.5v3.6h-3.5zm0 6.5h3.5v17.5h-3.5zm22.9 17.9q-3.3 0-5.1-2.3-1.8-2.2-1.8-6.9 0-4.6 1.8-6.8 1.8-2.3 4.9-2.3 3.6 0 5.3 2.4h0.2v-8.6h3.4v24.1h-2.7l-0.4-2.4h-0.2q-0.8 1.4-2.2 2.1-1.5 0.7-3.2 0.7zm1-2.9q2.2 0 3.2-1.6 1.1-1.5 1.1-4.5v-0.2q0-6.2-4.3-6.2-2.4 0-3.4 1.4-1 1.4-1 4.7v0.3q0 3.3 1 4.7 1 1.4 3.4 1.4zm16.6 2.9q-2.2 0-3.9-1.1-1.8-1.1-1.8-3.9 0-3.3 2.9-4.6 3-1.3 8.4-1.3v-1.7q0-1.5-0.7-2.2-0.8-0.8-2.8-0.8-2 0-2.8 0.7-0.8 0.7-0.8 1.7v0.5h-3.3q0-0.2 0-0.8 0-2.3 1.9-3.5 1.9-1.3 5.1-1.3 3.4 0 5.1 1.4 1.7 1.4 1.7 3.9v9q0 0.6 0.4 0.8 0.3 0.3 0.8 0.3h1.2v2.3q-0.9 0.5-2.4 0.5-1.2 0-2-0.7-0.8-0.6-1-1.8h-0.3q-0.9 1.2-2.4 1.9-1.4 0.7-3.3 0.7zm1-2.8q1.9 0 3.3-1.2 1.3-1.2 1.3-3.3v-1q-3.8 0-5.8 0.6-2 0.7-2 2.5 0 1.2 0.8 1.8 0.8 0.6 2.4 0.6zm12.8-15.1h2.7l0.4 2.3h0.2q0.9-1.3 2.4-2 1.5-0.7 3.3-0.7 5.6 0 5.6 6v11.9h-3.4v-11.5q0-1.9-0.9-2.7-0.9-0.8-2.6-0.8-1.1 0-2.1 0.6-1 0.6-1.6 1.6-0.6 1.1-0.6 2.5v10.3h-3.4zm28.3-5.4h8.8q5.4 0 8.3 2.9 2.9 2.8 2.9 8.5 0 5.8-2.9 8.6-2.9 2.8-8.3 2.8h-8.8zm8.8 19.7q3.6 0 5.5-2 1.9-1.9 1.9-6.1v-0.3q0-4.2-1.9-6.2-1.9-1.9-5.5-1.9h-5.1v16.5zm14.8-20.9h3.5v3.5h-3.5zm0 6.6h3.5v17.4h-3.5zm10.9 23.6q-1.9 0-3.3-1.1-1.4-1-1.4-3.1 0-2.6 2.8-3.7-0.8-0.4-1.3-1.1-0.5-0.7-0.5-1.5 0-1.3 0.9-2 0.9-0.7 2.1-1-1.1-0.8-1.8-2-0.6-1.1-0.6-2.5 0-2.8 1.9-4.4 2-1.6 5.4-1.6 1.8 0 3.3 0.6 2.1-1.1 2.4-3h3.3q0 1.6-0.9 2.8-1 1.1-2.6 1.5 1.8 1.6 1.8 4.1 0 2.7-1.9 4.3-2 1.5-5.4 1.5h-2.7q-0.8 0-1.2 0.4-0.5 0.4-0.5 0.9 0 0.6 0.4 1 0.5 0.3 1.2 0.3h7.3q2.1 0 3.3 1.3 1.2 1.2 1.2 3.1 0 1.4-0.6 2.6-0.7 1.1-2 1.8-1.4 0.8-3.2 0.8zm4.2-14.7q1.9 0 2.9-0.8 1-0.9 1-2.5 0-1.7-1-2.6-1-0.8-2.9-0.8-1.9 0-2.9 0.8-1 0.9-1 2.6 0 1.6 1 2.5 1 0.8 2.9 0.8zm3.2 12.1q1 0 1.7-0.6 0.7-0.6 0.7-1.5 0-0.9-0.6-1.4-0.5-0.5-1.4-0.5h-7q-0.9 0-1.5 0.5-0.5 0.5-0.5 1.4 0 1 0.5 1.5 0.6 0.6 1.5 0.6zm8.4-27.5h3.4v3.5h-3.4zm0 6.6h3.4v17.4h-3.4zm12 17.9q-2 0-2.9-1.2-0.9-1.1-0.9-2.8v-11h-2.1v-2.9h2.1l0.7-4.8h2.7v4.8h3v2.9h-3v10.7q0 1.5 1.4 1.5h1.6v2.3q-0.5 0.2-1.2 0.3-0.8 0.2-1.4 0.2zm9.9 0q-2.1 0-3.9-1.1-1.7-1-1.7-3.8 0-3.4 2.9-4.7 2.9-1.3 8.4-1.3v-1.7q0-1.4-0.8-2.2-0.7-0.7-2.7-0.7-2 0-2.8 0.7-0.8 0.7-0.8 1.7v0.4h-3.3q-0.1-0.2-0.1-0.7 0-2.3 2-3.6 1.9-1.3 5.1-1.3 3.4 0 5.1 1.4 1.7 1.4 1.7 4v8.9q0 0.6 0.3 0.9 0.4 0.3 0.9 0.3h1.2v2.3q-0.9 0.4-2.4 0.4-1.2 0-2-0.6-0.8-0.7-1.1-1.8h-0.2q-0.9 1.2-2.4 1.8-1.4 0.7-3.4 0.7zm1-2.8q2 0 3.3-1.2 1.4-1.1 1.4-3.2v-1.1q-3.8 0-5.8 0.7-2 0.6-2 2.4 0 1.3 0.8 1.8 0.8 0.6 2.3 0.6zm12.8-21.6h3.5v24h-3.5zm-535.7 38.6h11.9q3.6 0 5.5 1.8 1.8 1.8 1.8 4.9 0 2.3-1 4-1.1 1.6-3.1 2.4l5.1 9.7h-4.1l-4.7-9.2h-7.7v9.2h-3.7zm11.7 10.5q1.8 0 2.8-1 1-1 1-2.8 0-1.7-1-2.6-0.9-1-2.8-1h-8v7.4zm19.3 12.7q-4.3 0-6.3-2.3-2.1-2.2-2.1-6.9 0-4.7 2.1-6.9 2-2.2 6.3-2.2 3.8 0 5.7 2.1 1.9 2 1.9 6.6v1.3h-12.5q0.2 2.8 1.3 4.2 1.2 1.3 3.6 1.3 1.9 0 3-0.9 1.2-0.9 1.2-2.7h3.4q0 3.1-2.1 4.7-2.2 1.7-5.5 1.7zm4-10.9q0-4.7-4-4.7-2.3 0-3.4 1.2-1.2 1.1-1.4 3.5zm6.9-7h2.8l0.3 2.3h0.2q0.9-1.3 2.3-2 1.4-0.7 3.1-0.7 3.3 0 5.1 2.2 1.8 2.3 1.8 6.9 0 4.6-1.8 6.9-1.8 2.3-4.9 2.3-3.6 0-5.2-2.4h-0.2v7.7h-3.5zm7.7 15q2.4 0 3.4-1.4 1-1.4 1-4.7v-0.3q0-3.3-1-4.7-1-1.4-3.4-1.4-2.2 0-3.2 1.6-1 1.5-1 4.5v0.3q0 3 1 4.5 1 1.6 3.2 1.6zm16.7 2.9q-5.6 0-5.6-6v-11.9h3.4v11.4q0 2 0.9 2.8 0.9 0.8 2.6 0.8 1.2 0 2.2-0.6 1-0.6 1.5-1.7 0.6-1 0.6-2.4v-10.3h3.4v17.5h-2.7l-0.4-2.3h-0.2q-0.9 1.3-2.4 2-1.5 0.7-3.3 0.7zm22.1 0q-1.8 0-3.2-0.7-1.4-0.7-2.2-2h-0.2l-0.4 2.3h-2.7v-24h3.4v8.5h0.2q1.7-2.4 5.3-2.4 3.1 0 4.9 2.3 1.8 2.3 1.8 6.8 0 4.7-1.8 6.9-1.8 2.3-5.1 2.3zm-1-2.9q2.4 0 3.4-1.4 1-1.4 1-4.7v-0.3q0-3.3-1-4.7-1-1.4-3.4-1.4-2.2 0-3.2 1.6-1.1 1.5-1.1 4.6v0.2q0 3 1.1 4.6 1 1.5 3.2 1.5zm11.2-21.5h3.4v24h-3.4zm7.8 0h3.4v3.5h-3.4zm0 6.6h3.4v17.4h-3.4zm7.8-6.5h3.4v14.6l6.9-8.1h4.1l-5.9 6.8 6.3 10.7h-4l-4.5-8.2-2.9 2.8v5.4h-3.4zm26.8 1.2h3.6v22.8h-3.6zm8.5 5.3h2.8l0.3 2.4h0.2q1-1.4 2.4-2.1 1.5-0.7 3.4-0.7 5.5 0 5.5 6v11.9h-3.4v-11.4q0-2-0.9-2.8-0.9-0.7-2.5-0.7-1.2 0-2.2 0.5-1 0.6-1.6 1.7-0.6 1-0.6 2.4v10.3h-3.4zm24.7 17.9q-3.3 0-5.1-2.3-1.8-2.2-1.8-6.9 0-4.5 1.8-6.8 1.8-2.3 4.9-2.3 3.6 0 5.3 2.4h0.2v-8.5h3.4v24h-2.7l-0.3-2.3h-0.3q-0.8 1.3-2.2 2-1.4 0.7-3.2 0.7zm1-2.9q2.2 0 3.3-1.5 1-1.6 1-4.6v-0.2q0-6.2-4.3-6.2-2.3 0-3.3 1.4-1 1.4-1 4.7v0.3q0 3.3 1 4.7 1 1.4 3.3 1.4zm19.3 2.9q-4.1 0-6.2-2.3-2.1-2.2-2.1-6.9 0-4.6 2.1-6.9 2.1-2.2 6.2-2.2 4.2 0 6.3 2.2 2.1 2.3 2.1 6.9 0 4.7-2.1 6.9-2.1 2.3-6.3 2.3zm0-2.8q2.6 0 3.7-1.5 1.1-1.5 1.1-4.7v-0.3q0-3.2-1.1-4.7-1.1-1.5-3.7-1.5-2.5 0-3.6 1.5-1.2 1.5-1.2 4.7v0.3q0 3.2 1.2 4.7 1.1 1.5 3.6 1.5zm11.7-15.1h2.7l0.4 2.3h0.2q0.9-1.3 2.4-2 1.5-0.7 3.3-0.7 5.6 0 5.6 6v11.9h-3.4v-11.4q0-2-0.9-2.8-0.9-0.8-2.6-0.8-1.2 0-2.1 0.6-1 0.6-1.6 1.7-0.6 1-0.6 2.4v10.3h-3.4zm26.2 17.9q-4.2 0-6.3-2.3-2-2.2-2-6.9 0-4.7 2-6.9 2.1-2.2 6.3-2.2 3.8 0 5.7 2.1 1.9 2 1.9 6.5v1.4h-12.4q0.1 2.8 1.3 4.1 1.1 1.4 3.5 1.4 1.9 0 3.1-0.9 1.1-0.9 1.1-2.8h3.4q0 3.2-2.1 4.8-2.1 1.7-5.5 1.7zm4-10.9q0-4.7-4-4.7-2.3 0-3.4 1.1-1.1 1.2-1.4 3.6z"/><path class="a" d="m254.3 464.1q-3.6 0-5.5-1.5-1.9-1.5-1.8-3.8-0.1-0.3 0-0.4 0-0.2 0-0.2h3.3v0.3q0 1.4 1.2 2.1 1.2 0.8 3 0.8 1.6 0 2.6-0.6 1.1-0.6 1.1-1.7 0-0.9-0.6-1.4-0.6-0.6-1.4-0.9-0.9-0.3-2.5-0.8-2-0.5-3.3-1-1.3-0.5-2.1-1.4-0.9-1-0.9-2.7 0-2.4 1.9-3.7 2-1.4 5.3-1.4 2 0 3.5 0.6 1.5 0.6 2.3 1.7 0.8 1.1 0.8 2.5v0.7h-3.4v-0.3q0-1.1-0.8-1.7-0.9-0.7-2.7-0.7-1.8 0-2.6 0.6-0.8 0.6-0.8 1.4 0 1.1 1 1.6 1 0.5 3.1 1 2.1 0.5 3.4 1 1.4 0.5 2.3 1.6 1 1 1 2.8 0 2.8-2 4.2-2 1.3-5.4 1.3zm10.7-24.4h3.5v3.5h-3.5zm0 6.5h3.5v17.5h-3.5zm12.3 17.9q-2.1 0-3.9-1.1-1.7-1-1.7-3.8 0-3.4 2.9-4.7 2.9-1.3 8.4-1.3v-1.7q0-1.4-0.8-2.2-0.7-0.7-2.7-0.7-2 0-2.8 0.7-0.8 0.7-0.8 1.7v0.4h-3.3q-0.1-0.2-0.1-0.7 0-2.3 2-3.6 1.9-1.3 5.1-1.3 3.4 0 5.1 1.4 1.7 1.4 1.7 4v8.9q0 0.6 0.3 0.9 0.4 0.3 0.9 0.3h1.2v2.2q-0.9 0.5-2.4 0.5-1.2 0-2-0.7-0.8-0.6-1.1-1.7h-0.2q-0.9 1.1-2.4 1.8-1.4 0.7-3.4 0.7zm1-2.8q2 0 3.3-1.2 1.4-1.2 1.4-3.2v-1.1q-3.8 0-5.8 0.7-2 0.6-2 2.4 0 1.2 0.8 1.8 0.8 0.6 2.3 0.6z"/></svg>